<svg width="10" height="10" viewBox="0 0 10 10" fill="none" xmlns="http://www.w3.org/2000/svg">
<path d="M7.36592 7.49604C6.89563 7.96633 6.55196 8.34617 6.33491 8.63558C6.11785 8.88881 5.86462 9.23248 5.57522 9.66658H4.27289C3.98349 9.1963 3.71217 8.83454 3.45894 8.58131C3.24188 8.32808 2.89822 7.94824 2.42793 7.44178C1.92147 6.97149 1.54163 6.62782 1.2884 6.41077C1.03517 6.15754 0.673409 5.88622 0.203125 5.59682V4.29449C0.637233 4.00509 0.980903 3.75186 1.23413 3.5348C1.52354 3.31775 1.90338 2.97408 2.37367 2.50379C2.84395 2.03351 3.18762 1.67175 3.40468 1.41852C3.62173 1.12912 3.87496 0.767359 4.16437 0.333252H5.46669C5.7561 0.803537 6.00933 1.16529 6.22638 1.41852C6.47961 1.67175 6.84137 2.0516 7.31165 2.55806C7.78194 3.02834 8.14369 3.3901 8.39692 3.64333C8.68633 3.86038 9.06617 4.11361 9.53646 4.40302V5.70534C9.10235 5.99475 8.74059 6.24798 8.45119 6.46503C8.19796 6.68209 7.8362 7.02576 7.36592 7.49604Z" fill="white"/>
</svg>
