<svg width="25" height="24" viewBox="0 0 25 24" fill="none" xmlns="http://www.w3.org/2000/svg">
<g clip-path="url(#clip0_2124_8195)">
<path d="M4.20117 8C4.20117 6.93913 4.6226 5.92172 5.37274 5.17157C6.12289 4.42143 7.14031 4 8.20117 4H16.2012C17.262 4 18.2795 4.42143 19.0296 5.17157C19.7797 5.92172 20.2012 6.93913 20.2012 8V16C20.2012 17.0609 19.7797 18.0783 19.0296 18.8284C18.2795 19.5786 17.262 20 16.2012 20H8.20117C7.14031 20 6.12289 19.5786 5.37274 18.8284C4.6226 18.0783 4.20117 17.0609 4.20117 16V8Z" stroke="white" stroke-width="1.5" stroke-linecap="round" stroke-linejoin="round"/>
<path d="M9.20117 12C9.20117 12.7956 9.51724 13.5587 10.0799 14.1213C10.6425 14.6839 11.4055 15 12.2012 15C12.9968 15 13.7599 14.6839 14.3225 14.1213C14.8851 13.5587 15.2012 12.7956 15.2012 12C15.2012 11.2044 14.8851 10.4413 14.3225 9.87868C13.7599 9.31607 12.9968 9 12.2012 9C11.4055 9 10.6425 9.31607 10.0799 9.87868C9.51724 10.4413 9.20117 11.2044 9.20117 12Z" stroke="white" stroke-width="1.5" stroke-linecap="round" stroke-linejoin="round"/>
<path d="M16.7012 7.5V7.51" stroke="white" stroke-width="1.5" stroke-linecap="round" stroke-linejoin="round"/>
</g>
<defs>
<clipPath id="clip0_2124_8195">
<rect width="24" height="24" fill="white" transform="translate(0.201172)"/>
</clipPath>
</defs>
</svg>
