<?xml version="1.0" encoding="UTF-8"?>
<svg id="Layer_1" xmlns="http://www.w3.org/2000/svg" version="1.1" viewBox="0 0 1454.88 345.6">
  <!-- Generator: Adobe Illustrator 29.8.2, SVG Export Plug-In . SVG Version: 2.1.1 Build 3)  -->
  <path d="M1207.63,274.18h-47.98l-35.08-68.74c-1.11-1.45-3.57-.54-5.23-.77v69.5h-44.63V75.73l68.88-.02c31.08,1.87,50.83,19.96,55.34,50.65,4.22,28.71-3.46,60.71-33.04,71.84l-.51.94,42.25,75.03ZM1119.34,172.56h13.68c4.25,0,11.47-2.59,14.65-5.5,9.76-8.95,9.67-38.94,2.3-49.3-2.75-3.86-9.82-7.99-14.55-7.99h-16.07v62.79Z" fill="#fff"/>
  <path d="M963.65,73c42.81-3.01,68.3,12.56,77.6,54.98,7.09,32.37,7.14,92.9-10.6,121.72-16.76,27.22-52.96,32.11-81.97,24.45-47.95-12.66-49.39-73.77-47.81-114.31,1.66-42.46,13.75-83.39,62.78-86.83ZM971.81,108.47c-24.18.82-24.5,30.06-25.34,48.03-.9,19.25-2.27,58.58,7.3,75.17,8.16,14.15,31.46,13.62,39.17-.95,8.76-16.56,7.61-53.02,6.81-71.82-.84-19.68-.84-51.34-27.93-50.43Z" fill="#fff"/>
  <path d="M795.18,75.73v72.86c1.48-1.09,2.53-3.21,3.56-4.83,13.91-21.97,27.34-44.31,40.99-66.44.3-.49.53-1,.55-1.58h47.5l-58.38,91.79,58.86,106.65h-49.18l-43.91-85.8v85.8h-44.15V75.73h44.15Z" fill="#fff"/>
  <path d="M576.29,274.18l54.75-198.39,42.44-.08,55.88,198.48h-44.63l-8.86-34.06-47.24.08-7.72,33.99h-44.63ZM636.27,208.99h32.63l-15.6-65.67-1.67,1.2-15.36,64.47Z" fill="#fff"/>
  <path d="M487.04,211.87v62.31h-44.63V75.73l68.4-.02c19.27,1.44,37.31,9.51,47.33,26.54,14,23.81,13.23,68.08-4.89,89.7-16.51,19.69-42.31,20.49-66.2,19.91ZM487.04,178.31c8.89-.2,20.47,1.08,27.6-5.26,11.2-9.97,11.27-47.51.73-57.79-2.23-2.17-9.27-5.49-12.25-5.49h-16.07v68.54Z" fill="#fff"/>
  <path d="M187.14,119.35c-13.46-5.51-28.57-10.89-43.42-9.58-16.93,1.5-17.05,17.86-7.46,28.53,20.69,22.99,58.19,34.56,63.29,69.56,4.35,29.85-8.24,58.4-38.7,66.67-23.84,6.47-58.9.14-77.36-16.87-1.13-1.04-3.31-2.84-3.39-4.31l7.01-33.8c8.37,6.62,17.77,12.13,27.82,15.82,12.67,4.66,36.39,10.44,40.43-8.04,2.77-12.66-3.21-19.02-12.13-26.47-23.43-19.57-55.47-33.93-57.8-68.8-3.3-49.42,38.45-66.62,81.19-56.18,9.46,2.31,19.76,6.11,26.99,12.78l-6.45,30.7Z" fill="#fff"/>
  <polygon points="1269.6 75.73 1320.47 188.14 1320.47 272.74 1272.96 161.54 1272.96 274.18 1230.26 274.18 1230.26 75.73 1269.6 75.73" fill="#fff"/>
  <polygon points="361.67 75.73 361.67 238.71 421.65 238.71 421.65 274.18 317.05 274.18 317.05 75.73 361.67 75.73" fill="#fff"/>
  <rect x="231.28" y="75.73" width="44.63" height="198.44" fill="#fff"/>
  <rect x="1361.31" y="74.68" width="3.71" height="199.5" fill="#fff"/>
  <path d="M1355.98,228.64v6.17c-4.58,2-16.77,6.69-16.77,6.69h16.77v6.31h-29.72v-6.31l16.31-6.63-16.31-.07v-6.17h29.72Z" fill="#fff"/>
  <path d="M1326.26,156.98c0-5.4,4.38-8.69,9.57-8.69,6.99,0,8.82,5.19,8.82,5.19l11.33-6.21v7.56l-10.53,5.49h10.53v6.71h-29.72v-10.05ZM1331.59,160.32h9.06c0-4.12-1.79-5.25-4.75-5.25-2.75,0-4.32,1.27-4.32,5.25Z" fill="#fff"/>
  <path d="M1326.26,273.22v-6.23h20.18c1.77,0,3.47-.97,4.19-2.58.17-.38.28-.78.29-1.18,0-.25-.03-.5-.1-.74-.43-1.63-2-2.69-3.68-2.69h-20.87v-6.23h21.13c1.9,0,3.79.49,5.4,1.49.14.09.25.16.31.21,4.32,3.68,3.97,13.53-.95,16.73-.38.24-2.42,1.22-2.62,1.22h-23.27Z" fill="#fff"/>
  <polygon points="1355.98 204.63 1326.27 212.35 1326.27 206.02 1347.38 201.12 1326.27 196.63 1326.27 189.9 1355.98 198.19 1355.98 204.63" fill="#fff"/>
  <polygon points="1331.54 171.23 1331.54 180.34 1338.26 180.34 1338.26 172.19 1343.06 172.19 1343.06 180.34 1350.73 180.34 1350.73 171.23 1355.98 171.23 1355.98 186.94 1326.26 186.94 1326.26 171.23 1331.54 171.23" fill="#fff"/>
  <path d="M1347.48,144.87s4.73-6.87,2.2-9.58c-3.3-3.55-6.58,6.47-11.66,9.09-4.3,2.21-11.3-.15-12.18-5.16-1.05-5.93,2.34-10.58,2.34-10.58l4.87,1.38s-3.99,7.97.25,8.15c3.99.18,6.21-9.46,12.74-10.2,8.46-.96,11.78,5.13,9.77,12.63-.68,2.53-2.64,5.47-2.64,5.47l-5.68-1.2Z" fill="#fff"/>
  <polygon points="1356.02 80.77 1356.02 87.51 1344.26 87.51 1326.26 94.69 1326.26 88.62 1338.26 84.23 1326.26 79.78 1326.26 73.1 1344.74 80.77 1356.02 80.77" fill="#fff"/>
  <polygon points="1326.26 95.56 1331.56 95.56 1331.56 101.27 1356.02 101.27 1356.02 107.91 1331.56 107.91 1331.56 113.25 1326.26 113.25 1326.26 95.56" fill="#fff"/>
  <rect x="1326.36" y="116.6" width="29.65" height="6.71" fill="#fff"/>
  <rect x="1326.26" y="215.98" width="29.72" height="6.71" fill="#fff"/>
</svg>