<svg width="53" height="32" viewBox="0 0 53 32" fill="none" xmlns="http://www.w3.org/2000/svg">
<path d="M13.1019 9.59999C13.6906 9.09182 14.3497 8.65911 15.0642 8.29685V3.33082C15.044 2.94339 14.9635 2.58616 14.8176 2.26415C14.6717 1.94214 14.4855 1.64528 14.2541 1.37358C14.0227 1.10189 13.7711 0.850314 13.4893 0.62893C13.2126 0.402515 12.9258 0.196226 12.639 0L10.5912 1.99245C10.8025 2.26415 10.9283 2.53585 10.9686 2.79748C11.0088 3.05912 11.0289 3.361 11.0289 3.69308V12.322C11.0289 12.322 11.039 12.3019 11.039 12.2918C11.5472 11.2503 12.2365 10.3547 13.1019 9.60503" fill="#CFDEDC"/>
<path d="M10.9031 12.5837C10.2289 11.9849 9.52955 11.5069 8.79999 11.1447C8.05031 10.7723 7.26037 10.4705 6.43522 10.239V3.74342C6.43522 3.11952 6.32956 2.57613 6.11824 2.11827C5.90691 1.66041 5.63522 1.29311 5.30817 1.02141C5.07673 0.80506 4.79497 0.649086 4.45786 0.553488C4.12075 0.457891 3.65283 0.407576 3.05912 0.407576C2.73207 0.407576 2.35472 0.422671 1.93207 0.452859C1.50943 0.483048 1.01635 0.538394 0.462893 0.613866L0 3.56732C0.0955974 3.5472 0.231446 3.53713 0.402515 3.53713C0.961006 3.53713 1.44402 3.67801 1.84654 3.95978C2.24906 4.24154 2.45031 4.69437 2.45031 5.31826V10.2038C2.16352 10.3195 1.89685 10.4705 1.65534 10.6566C1.41384 10.8428 1.20755 11.0139 1.03648 11.1698C0.825157 11.3862 0.633962 11.5874 0.457861 11.7837C0.41761 11.9396 0.397484 12.1006 0.397484 12.2667V12.7497C0.397484 13.3334 0.472956 13.8868 0.62893 14.4051C0.784905 14.9233 1.01132 15.3711 1.32327 15.7535C1.63019 16.1359 2.02264 16.4327 2.49056 16.644C2.96352 16.8604 3.50692 16.9661 4.12075 16.9661C4.50817 16.8705 4.84528 16.7195 5.14717 16.5283C5.44402 16.3321 5.69056 16.1258 5.88176 15.9145C6.09308 15.683 6.27421 15.4264 6.43018 15.1547V13.0164C6.85283 13.1522 7.26037 13.3535 7.65786 13.6151C8.05031 13.8767 8.4176 14.1837 8.75471 14.5359C9.09182 14.8881 9.39874 15.2604 9.6805 15.6629C9.92704 16.0201 10.1434 16.3824 10.3245 16.7447C10.2943 16.4076 10.2742 16.0755 10.2742 15.7384C10.2742 14.5962 10.4855 13.5396 10.9031 12.5736" fill="#CFDEDC"/>
<path d="M28.5333 6.84278C28.2113 7.07926 27.8792 7.40127 27.5321 7.81385C27.1849 8.22643 26.8931 8.73964 26.6616 9.3585C25.7358 8.50819 24.6541 7.93461 23.4214 7.63775C22.1887 7.34593 20.966 7.19498 19.7484 7.19498C18.4704 7.19498 17.2629 7.4063 16.1157 7.83398C15.7484 7.96983 15.3962 8.1258 15.0591 8.29687V12.4327C15.0591 13.0013 14.9585 13.5648 14.7572 14.1283C14.556 14.6918 14.234 15.2201 13.7912 15.7082C13.5597 15.9396 13.2881 16.1308 12.9711 16.2767C12.6541 16.4227 12.3321 16.5384 12.005 16.6289C11.678 16.7145 11.3711 16.7799 11.0843 16.8201C10.7925 16.8604 10.566 16.8805 10.3899 16.8805C10.3698 16.8352 10.3447 16.795 10.3245 16.7497C10.3598 17.0918 10.405 17.434 10.4704 17.7711C10.6013 18.4453 10.8126 19.0943 11.0994 19.7082C11.3912 20.3271 11.7585 20.8855 12.2063 21.3837C12.6541 21.8818 13.1975 22.2793 13.8365 22.5711C13.0818 23.1598 12.5836 23.8541 12.3371 24.6642C12.0906 25.4742 11.9245 26.2792 11.839 27.0893C11.7535 27.8994 11.6579 28.639 11.5572 29.3132C11.4566 29.9925 11.1598 30.4906 10.6667 30.8126V32H14.7522C15.361 32 15.8742 31.8189 16.2969 31.4465C16.7145 31.0792 17.0566 30.6164 17.3182 30.0579C17.5799 29.4994 17.7912 28.8906 17.9472 28.2264C18.1082 27.5673 18.2591 26.9283 18.405 26.3094C18.5208 25.6906 18.7472 25.1723 19.0792 24.7447C19.4113 24.317 19.7887 23.9648 20.2113 23.6881C20.6289 23.4113 21.0717 23.205 21.5346 23.0692C21.9975 22.9384 22.4352 22.8679 22.8377 22.8679L23.1396 21.9421L22.1836 19.1648C21.8365 19.0793 21.444 19.034 21.0113 19.034C20.488 19.034 19.9547 19.0943 19.4013 19.2101C18.8528 19.3258 18.2843 19.4868 17.7057 19.6931C17.2981 19.4013 16.9962 18.9837 16.7899 18.4352C16.5887 17.8918 16.488 17.2981 16.488 16.6491C16.488 15.2403 16.9157 14.0931 17.7711 13.2126C18.6264 12.3321 19.7082 11.8893 21.0113 11.8893C21.9975 11.8893 22.883 12.1006 23.6629 12.5283C24.4428 12.956 25.1421 13.5044 25.7509 14.1786V28.6792C25.7509 29.4138 25.9119 30.073 26.2289 30.6616C26.5459 31.2503 26.9535 31.6881 27.4465 31.9849H31.5773L33.0113 30.7069C32.6943 30.2943 32.488 29.8918 32.4025 29.4943C32.317 29.0969 32.2717 28.6491 32.2717 28.1509V11.8239C32.2717 10.5006 32.4075 9.49435 32.6843 8.80505C32.961 8.11574 33.3434 7.56228 33.8365 7.15473V6.18366H29.6201C29.2428 6.32958 28.8805 6.55096 28.5333 6.84278Z" fill="#9BBFBC"/>
<path d="M11.029 12.3724V12.312C10.9887 12.4026 10.9484 12.4882 10.9082 12.5787C10.9283 12.5988 10.9484 12.6139 10.9686 12.6341C11.0088 12.5586 11.0239 12.468 11.0239 12.3724" fill="#007A6D"/>
<path d="M11.0843 16.8201C11.3711 16.7799 11.678 16.7195 12.005 16.6289C12.3321 16.5434 12.6541 16.4227 12.9711 16.2767C13.2881 16.1308 13.5648 15.9397 13.7962 15.7083C14.239 15.2202 14.561 14.6919 14.7623 14.1284C14.9635 13.5649 15.0642 12.9963 15.0642 12.4328L15.0642 8.29685C14.3447 8.65408 13.6906 9.09182 13.1019 9.59999C12.2315 10.3497 11.5422 11.2454 11.039 12.2869C11.039 12.297 11.029 12.307 11.029 12.3171V12.3775C11.029 12.4731 11.0088 12.5636 10.9686 12.6391C10.9484 12.619 10.9283 12.6039 10.9082 12.5838C10.4906 13.5498 10.2793 14.6014 10.2793 15.7485C10.2793 16.0856 10.2944 16.4177 10.3296 16.7548C10.3497 16.8001 10.3749 16.8404 10.395 16.8856C10.5661 16.8856 10.7975 16.8655 11.0893 16.8253" fill="#82B2AE"/>
<path d="M51.7282 1.53967C51.049 0.714514 50.1031 0.301936 48.8955 0.301936H39.1194C38.6012 0.301936 38.1182 0.427722 37.6754 0.679294C37.2327 0.930866 36.8352 1.21263 36.488 1.52458C36.1408 1.83653 35.8591 2.14848 35.6377 2.46042C35.4163 2.77237 35.2654 2.99376 35.1949 3.11954C35.6125 3.47175 35.9345 3.91954 36.1559 4.473C36.3773 5.02143 36.488 5.58495 36.488 6.16357V17.6504C36.488 18.6516 36.2918 19.3912 35.8943 19.8642L37.0415 20.951H40.3371C40.6842 20.6742 40.9911 20.2818 41.2628 19.7686C41.5345 19.2554 41.6704 18.712 41.6704 18.1384V4.97615C41.6704 4.86545 41.6452 4.77992 41.5949 4.72961H47.371C47.5169 4.72961 47.5924 4.78998 47.5924 4.91577V17.6805C47.5924 18.1585 47.5471 18.5711 47.4616 18.9183C47.376 19.2705 47.2201 19.5824 46.9987 19.8592L48.1459 20.9459H51.4062C51.7987 20.6441 52.1207 20.2415 52.3672 19.7283C52.6138 19.2151 52.7396 18.6818 52.7396 18.1334V4.80508C52.7396 3.45162 52.4025 2.36483 51.7232 1.53967" fill="#C1D6D4"/>
</svg>
