<svg width="25" height="24" viewBox="0 0 25 24" fill="none" xmlns="http://www.w3.org/2000/svg">
<g clip-path="url(#clip0_2124_8200)">
<path d="M21.2012 7.917V11.951C19.3872 11.771 17.6576 11.0961 16.2012 10V14.5C16.2009 15.7211 15.8567 16.9175 15.2079 17.952C14.5591 18.9865 13.632 19.8174 12.5328 20.3493C11.4337 20.8813 10.2069 21.0929 8.99302 20.9599C7.77916 20.8268 6.62733 20.3545 5.66948 19.5971C4.71163 18.8397 3.98651 17.8278 3.5772 16.6773C3.16789 15.5268 3.09093 14.2843 3.35516 13.0921C3.61939 11.8999 4.2141 10.8062 5.07117 9.93642C5.92824 9.0666 7.013 8.4558 8.20117 8.174V12.5C7.86026 12.7557 7.59036 13.0943 7.41711 13.4836C7.24386 13.8729 7.173 14.3001 7.21127 14.7245C7.24954 15.1489 7.39567 15.5565 7.63577 15.9086C7.87587 16.2606 8.20199 16.5455 8.58314 16.7361C8.96429 16.9266 9.38783 17.0166 9.81354 16.9975C10.2393 16.9783 10.653 16.8507 11.0155 16.6266C11.378 16.4026 11.6772 16.0896 11.8847 15.7174C12.0922 15.3452 12.2012 14.9261 12.2012 14.5V3H16.2842C16.4924 4.2284 17.0775 5.36162 17.9585 6.24263C18.8395 7.12363 19.9728 7.70878 21.2012 7.917Z" stroke="white" stroke-width="1.5" stroke-linecap="round" stroke-linejoin="round"/>
</g>
<defs>
<clipPath id="clip0_2124_8200">
<rect width="24" height="24" fill="white" transform="translate(0.201172)"/>
</clipPath>
</defs>
</svg>
