<svg width="25" height="24" viewBox="0 0 25 24" fill="none" xmlns="http://www.w3.org/2000/svg">
<g clip-path="url(#clip0_2124_8199)">
<path d="M3.20117 9C3.20117 7.93913 3.6226 6.92172 4.37274 6.17157C5.12289 5.42143 6.14031 5 7.20117 5H17.2012C18.262 5 19.2795 5.42143 20.0296 6.17157C20.7797 6.92172 21.2012 7.93913 21.2012 9V15C21.2012 16.0609 20.7797 17.0783 20.0296 17.8284C19.2795 18.5786 18.262 19 17.2012 19H7.20117C6.14031 19 5.12289 18.5786 4.37274 17.8284C3.6226 17.0783 3.20117 16.0609 3.20117 15V9Z" stroke="white" stroke-width="1.5" stroke-linecap="round" stroke-linejoin="round"/>
<path d="M10.2012 9L15.2012 12L10.2012 15V9Z" stroke="white" stroke-width="1.5" stroke-linecap="round" stroke-linejoin="round"/>
</g>
<defs>
<clipPath id="clip0_2124_8199">
<rect width="24" height="24" fill="white" transform="translate(0.201172)"/>
</clipPath>
</defs>
</svg>
